<svg xmlns="http://www.w3.org/2000/svg" width="1280" height="720" viewBox="0 0 1280 720" role="img" aria-labelledby="title desc">
  <title id="title">Operational readiness checks</title>
  <desc id="desc">Passed repository documentation checks and available verification and recovery commands.</desc>
  <defs>
    <linearGradient id="bg" x1="0" y1="0" x2="1" y2="1">
      <stop offset="0" stop-color="#f8fafc"/>
      <stop offset="1" stop-color="#eaf2ff"/>
    </linearGradient>
    <filter id="shadow" x="-10%" y="-10%" width="120%" height="130%">
      <feDropShadow dx="0" dy="5" stdDeviation="8" flood-color="#334155" flood-opacity=".10"/>
    </filter>
  </defs>
  <rect width="1280" height="720" fill="url(#bg)"/>
  <text x="66" y="92" font-family="Segoe UI, Arial, sans-serif" font-size="42" font-weight="700" fill="#152033">Operational readiness</text>
  <text x="66" y="126" font-family="Segoe UI, Arial, sans-serif" font-size="18" fill="#5b687a">Documentation and repository checks</text>
  <g font-family="Segoe UI, Arial, sans-serif" filter="url(#shadow)">
    <g transform="translate(66 164)">
      <rect width="552" height="126" rx="14" fill="#fff" stroke="#dbe2ea"/>
      <text x="22" y="38" font-family="Consolas, monospace" font-size="16" font-weight="700" fill="#1e3a5f">routes:inventory:check</text>
      <rect x="445" y="19" width="85" height="29" rx="14" fill="#e7f7ef" stroke="#bce8d2"/>
      <text x="462" y="39" font-size="13" font-weight="700" fill="#137a4b">PASSED</text>
      <text x="22" y="84" font-size="17" fill="#425168">311 routes — current</text>
    </g>
    <g transform="translate(636 164)">
      <rect width="552" height="126" rx="14" fill="#fff" stroke="#dbe2ea"/>
      <text x="22" y="38" font-family="Consolas, monospace" font-size="16" font-weight="700" fill="#1e3a5f">check:rag-docs</text>
      <rect x="445" y="19" width="85" height="29" rx="14" fill="#e7f7ef" stroke="#bce8d2"/>
      <text x="462" y="39" font-size="13" font-weight="700" fill="#137a4b">PASSED</text>
      <text x="22" y="84" font-size="17" fill="#425168">15 routes — contract current</text>
    </g>
    <g transform="translate(66 308)">
      <rect width="552" height="126" rx="14" fill="#fff" stroke="#dbe2ea"/>
      <text x="22" y="38" font-family="Consolas, monospace" font-size="16" font-weight="700" fill="#1e3a5f">check:no-ee</text>
      <rect x="445" y="19" width="85" height="29" rx="14" fill="#e7f7ef" stroke="#bce8d2"/>
      <text x="462" y="39" font-size="13" font-weight="700" fill="#137a4b">PASSED</text>
      <text x="22" y="84" font-size="17" fill="#425168">No Enterprise Edition modules</text>
    </g>
    <g transform="translate(636 308)">
      <rect width="552" height="126" rx="14" fill="#fff" stroke="#dbe2ea"/>
      <text x="22" y="38" font-family="Consolas, monospace" font-size="16" font-weight="700" fill="#1e3a5f">check:comments:en</text>
      <rect x="445" y="19" width="85" height="29" rx="14" fill="#e7f7ef" stroke="#bce8d2"/>
      <text x="462" y="39" font-size="13" font-weight="700" fill="#137a4b">PASSED</text>
      <text x="22" y="84" font-size="17" fill="#425168">Documentation language check passed</text>
    </g>
  </g>
  <g transform="translate(66 470)" font-family="Segoe UI, Arial, sans-serif">
    <rect width="1122" height="164" rx="14" fill="#142033"/>
    <text x="24" y="40" font-size="19" font-weight="700" fill="#fff">Available workflows and recovery commands</text>
    <g font-family="Consolas, monospace" font-size="16" font-weight="700" fill="#fff">
      <rect x="24" y="66" width="176" height="48" rx="9" fill="#22324b" stroke="#3f526e"/>
      <text x="44" y="96">verify:quick</text>
      <rect x="216" y="66" width="168" height="48" rx="9" fill="#22324b" stroke="#3f526e"/>
      <text x="236" y="96">verify:full</text>
      <rect x="400" y="66" width="190" height="48" rx="9" fill="#22324b" stroke="#3f526e"/>
      <text x="420" y="96">search:reindex</text>
      <rect x="606" y="66" width="260" height="48" rx="9" fill="#22324b" stroke="#3f526e"/>
      <text x="626" y="96">sso:disable-enforcement</text>
    </g>
  </g>
  <text x="66" y="680" font-family="Segoe UI, Arial, sans-serif" font-size="14" fill="#718096">Local verification • 2026-08-04</text>
</svg>
